<svg xmlns="http://www.w3.org/2000/svg" viewBox="0 0 800 1000" width="100%" height="100%">
  <!-- NAME SVG STRUCTURAL MEMORY CARRIER: USPTO 19/693,411 -->
  <!-- AUTHORITY: BOUND | CARD STATUS: ACTIVE SEEDED -->
  <!-- CCTP: EMBEDDED | LCHC-2048: VERIFIED | lchc_digest: 679e5c2faf32e677... -->
  <defs>
    <style>
      .bg { fill: #0a0f1d; }
      .grid { stroke: #1e293b; stroke-width: 0.5; stroke-dasharray: 4,4; }
      .hdr { font-family: monospace; font-size: 18px; fill: #38bdf8; font-weight: bold; }
      .txt { font-family: monospace; font-size: 11px; fill: #94a3b8; }
      .lbl { font-family: monospace; font-size: 11px; fill: #f1f5f9; font-weight: bold; }
      .blu { stroke: #38bdf8; fill: none; stroke-width: 1.5; }
      .amb { stroke: #f59e0b; fill: none; stroke-width: 1.5; }
      .pur { stroke: #a855f7; fill: none; stroke-width: 1.5; }
      .grn { fill: #10b981; }
    </style>
  </defs>

  <rect width="800" height="1000" class="bg"/>
  <path d="M0 100 H800 M0 200 H800 M0 300 H800 M0 400 H800 M0 500 H800 M0 600 H800 M0 700 H800 M0 800 H800 M0 900 H800" class="grid"/>
  <path d="M100 0 V1000 M200 0 V1000 M300 0 V1000 M400 0 V1000 M500 0 V1000 M600 0 V1000 M700 0 V1000" class="grid"/>

  <text x="30" y="40" class="hdr">AURA115 · QUANTUM HALO PROJECTION (QHP) SPECIFICATION</text>
  <text x="30" y="65" class="txt">AUTHOR: Joshua L. Lopez / DCGP.AI LLC · COUNSEL: Kevin Bastuba, Esq.</text>
  <text x="30" y="80" class="txt">PATENT REF: USPTO 19/693,411 · 19/716,001 · LCHC-2048 COMPLIANT</text>
  <circle cx="750" cy="55" r="8" class="grn"/>

  <!-- CCTP EMBEDDED PAYLOAD — AVRO SCHEMA qhp-payload-v1.avsc — lchc_digest VERIFIED -->
  <g id="name-svg-metadata-payload" style="display:none;"
     data-payload="eyJtb2R1bGUiOiAiT1JJX05PREVfQ0NUUCIsICJzbHVnIjogImNjdHAtZGVsdGEiLCAidGl0bGUiOiAiQ29uc3RpdHV0aW9uYWwgQ2hhdCBUcmFuc3BvcnQgUHJvdG9jb2wiLCAiYXBwTnVtYmVyIjogIjE5LzcxNiwwMDEiLCAiUUhQX01FVFJJQ1MiOiB7Im9ibGlnYXRpb25faGVhbHRoIjogMS4wLCAiZmlkZWxpdHlfbWVhbiI6IDAuOTgyMTQsICJyZXNpbGllbmNlX2luZGV4IjogMS4wLCAicmlza19pbmRleCI6IDAuMH0sICJsY2hjX2RpZ2VzdCI6ICI2NzllNWMyZmFmMzJlNjc3MjA2NjEzOWE3ZTY2ODRjMDkzNWUxNmM3YjQ3MWEyNTg3MjdkZTM1MWI3MzY2ZjhhIn0="
     data-schema="ai.dcgp.aural115.gtsr.QhpPayloadEmissionMatrix"
     data-lchc="679e5c2faf32e6772066139a7e6684c0935e16c7b471a258727de351b7366f8a"
     data-committed="2026-06-28"
     data-status="ACTIVE_SEEDED"/>

  <g transform="translate(50, 120)">
    <rect width="700" height="180" rx="6" class="blu"/>
    <text x="20" y="30" class="lbl">LAYER 1: WARDENCLYFFE RESONANT DRIVE (WRD) [BLUE OUTLINE]</text>
    <path d="M 100 110 A 40 40 0 1 1 180 110 A 40 40 0 1 1 100 110" class="blu"/>
    <text x="140" y="115" class="txt" text-anchor="middle">Toroidal Dome</text>
    <rect x="260" y="70" width="140" height="50" rx="4" class="blu"/>
    <text x="330" y="100" class="txt" text-anchor="middle">AD9833 DDS Core</text>
    <text x="430" y="100" class="lbl">══► Clock Carrier Signal: 7.83 Hz</text>
    <text x="260" y="150" class="txt">Phase Lock Target: Metal 1 (Np-Pu) &amp; Metal 5 (Californium Coherence)</text>
  </g>

  <g transform="translate(50, 330)">
    <rect width="700" height="260" rx="6" class="amb"/>
    <text x="20" y="30" class="lbl">LAYER 2: MC290 POLYHEDRAL GOVERNANCE CIRCUIT (PGC) [AMBER OUTLINE]</text>
    <circle cx="150" cy="140" r="80" class="amb" stroke-dasharray="2,2"/>
    <circle cx="150" cy="140" r="55" class="amb"/>
    <circle cx="150" cy="140" r="30" class="amb"/>
    <text x="150" y="145" class="txt" text-anchor="middle">STM32F4</text>
    <rect x="280" y="65" width="380" height="50" rx="4" class="amb"/>
    <text x="290" y="95" class="lbl">QHP MUX GATE [74HC4053]: B := S ∩ I(S)</text>
    <rect x="280" y="130" width="380" height="50" rx="4" class="amb"/>
    <text x="290" y="160" class="txt">Live Parameters: obligation_health=100% | fidelity_mean=98.214%</text>
    <rect x="280" y="195" width="380" height="40" rx="4" class="amb"/>
    <text x="290" y="220" class="txt">Substrate Driver: Gates Mott Insulator States in Z=115 (Metal 4)</text>
  </g>

  <g transform="translate(50, 620)">
    <rect width="700" height="200" rx="6" class="pur"/>
    <text x="20" y="30" class="lbl">LAYER 3: MH66 ADMISSIBLE PROJECTION MEASUREMENT ARRAY (APMA) [PURPLE OUTLINE]</text>
    <g transform="translate(30, 60)">
      <rect x="0" y="0" width="30" height="30" class="pur"/><rect x="40" y="0" width="30" height="30" class="pur"/>
      <rect x="80" y="0" width="30" height="30" class="pur"/><rect x="120" y="0" width="30" height="30" class="pur"/>
      <rect x="0" y="40" width="30" height="30" class="pur"/><rect x="40" y="40" width="30" height="30" class="pur"/>
      <rect x="80" y="40" width="30" height="30" class="pur"/><rect x="120" y="40" width="30" height="30" class="pur"/>
      <text x="60" y="95" class="txt" text-anchor="middle">P1-P8 Matrix</text>
    </g>
    <rect x="230" y="60" width="220" height="80" rx="4" class="pur"/>
    <text x="340" y="95" class="lbl" text-anchor="middle">Q_L Conservation Engine</text>
    <text x="340" y="115" class="txt" text-anchor="middle">Drift Limit Check: ±3% | resilience=1.0 | risk=0.0</text>
    <rect x="480" y="60" width="190" height="80" rx="4" style="fill:#991b1b; stroke:#ef4444; stroke-width:1.5;"/>
    <text x="575" y="95" class="lbl" text-anchor="middle" style="fill:#ffffff;">NOT-LOGIC RELAY</text>
    <text x="575" y="115" class="lbl" text-anchor="middle" style="fill:#ffffff;">HARD REBOOT &lt; 10ns</text>
    <text x="30" y="175" class="txt">Enforces dynamic constraints over Metal 2 (W-Th Spinodal), Metal 3 (Osmium NTE), and Metal 6 (Lead Core).</text>
  </g>

  <g transform="translate(50, 850)">
    <text x="0" y="20" class="lbl">LIVE PLATFORM CONSTITUTIONAL SCORES [TICK INDEX #WAVE-1000]</text>
    <text x="0" y="45" class="txt">Authority Vector Verification Allocation: [BOUND] ────────────────────── 100%</text>
    <text x="0" y="65" class="txt">Stewardship Continuous Resource Status: [DORMANT] ──────────────────── 2%</text>
    <text x="0" y="85" class="txt">Temporal Invariant Continuity Index:     [FROZEN] ───────────────────── 0%</text>
    <text x="0" y="105" class="txt">Apparatus System Habitation Density:     [ACTIVE] ───────────────────── 100%</text>
    <text x="0" y="125" class="txt">Semantic Meaning Extraction Ratio Map:   [HOLDING] ──────────────────── 77%</text>
  </g>
</svg>